<mxfile host="app.diagrams.net" modified="2023-05-21T02:56:54.017Z" agent="Mozilla/5.0 (Windows NT 10.0; Win64; x64) AppleWebKit/537.36 (KHTML, like Gecko) Chrome/113.0.0.0 Safari/537.36" etag="kkidRQ3JJJoE6hMIi4iN" version="21.3.2" type="device">
  <diagram name="Page-1" id="d136zl7xPimBK5EIYTPY">
    <mxGraphModel dx="1050" dy="530" grid="1" gridSize="10" guides="1" tooltips="1" connect="1" arrows="1" fold="1" page="1" pageScale="1" pageWidth="1654" pageHeight="2336" math="0" shadow="0">
      <root>
        <mxCell id="0" />
        <mxCell id="1" parent="0" />
        <mxCell id="9gyQ5huFnyR0sVXiCk2G-1" value="" style="line;strokeWidth=4;direction=south;html=1;perimeter=backbonePerimeter;points=[];outlineConnect=0;" vertex="1" parent="1">
          <mxGeometry x="324" y="80" width="10" height="320" as="geometry" />
        </mxCell>
        <mxCell id="9gyQ5huFnyR0sVXiCk2G-2" value="" style="line;strokeWidth=4;direction=south;html=1;perimeter=backbonePerimeter;points=[];outlineConnect=0;" vertex="1" parent="1">
          <mxGeometry x="510" y="80" width="10" height="320" as="geometry" />
        </mxCell>
        <mxCell id="9gyQ5huFnyR0sVXiCk2G-3" value="Controller" style="text;html=1;align=center;verticalAlign=middle;resizable=0;points=[];autosize=1;strokeColor=none;fillColor=none;" vertex="1" parent="1">
          <mxGeometry x="289" y="50" width="80" height="30" as="geometry" />
        </mxCell>
        <mxCell id="9gyQ5huFnyR0sVXiCk2G-4" value="Peripheral" style="text;html=1;align=center;verticalAlign=middle;resizable=0;points=[];autosize=1;strokeColor=none;fillColor=none;" vertex="1" parent="1">
          <mxGeometry x="475" y="50" width="80" height="30" as="geometry" />
        </mxCell>
        <mxCell id="9gyQ5huFnyR0sVXiCk2G-5" value="" style="endArrow=classic;html=1;rounded=0;strokeWidth=3;" edge="1" parent="1" target="9gyQ5huFnyR0sVXiCk2G-2">
          <mxGeometry width="50" height="50" relative="1" as="geometry">
            <mxPoint x="330" y="120" as="sourcePoint" />
            <mxPoint x="380" y="70" as="targetPoint" />
          </mxGeometry>
        </mxCell>
        <mxCell id="9gyQ5huFnyR0sVXiCk2G-6" value="Start&amp;nbsp;" style="text;html=1;align=center;verticalAlign=middle;resizable=0;points=[];autosize=1;strokeColor=none;fillColor=none;" vertex="1" parent="1">
          <mxGeometry x="324" y="98" width="50" height="30" as="geometry" />
        </mxCell>
        <mxCell id="9gyQ5huFnyR0sVXiCk2G-7" value="" style="endArrow=classic;html=1;rounded=0;strokeWidth=3;" edge="1" parent="1">
          <mxGeometry width="50" height="50" relative="1" as="geometry">
            <mxPoint x="330" y="163" as="sourcePoint" />
            <mxPoint x="513" y="163" as="targetPoint" />
          </mxGeometry>
        </mxCell>
        <mxCell id="9gyQ5huFnyR0sVXiCk2G-8" value="Address" style="text;html=1;align=center;verticalAlign=middle;resizable=0;points=[];autosize=1;strokeColor=none;fillColor=none;" vertex="1" parent="1">
          <mxGeometry x="319" y="140" width="70" height="30" as="geometry" />
        </mxCell>
        <mxCell id="9gyQ5huFnyR0sVXiCk2G-11" value="" style="endArrow=classic;html=1;rounded=0;strokeWidth=3;" edge="1" parent="1">
          <mxGeometry width="50" height="50" relative="1" as="geometry">
            <mxPoint x="330" y="205" as="sourcePoint" />
            <mxPoint x="513" y="205" as="targetPoint" />
          </mxGeometry>
        </mxCell>
        <mxCell id="9gyQ5huFnyR0sVXiCk2G-12" value="Command (write)" style="text;html=1;align=center;verticalAlign=middle;resizable=0;points=[];autosize=1;strokeColor=none;fillColor=none;" vertex="1" parent="1">
          <mxGeometry x="319" y="180" width="120" height="30" as="geometry" />
        </mxCell>
        <mxCell id="9gyQ5huFnyR0sVXiCk2G-14" value="" style="endArrow=classic;html=1;rounded=0;strokeWidth=3;" edge="1" parent="1">
          <mxGeometry width="50" height="50" relative="1" as="geometry">
            <mxPoint x="512" y="245" as="sourcePoint" />
            <mxPoint x="329" y="245" as="targetPoint" />
          </mxGeometry>
        </mxCell>
        <mxCell id="9gyQ5huFnyR0sVXiCk2G-15" value="Ack" style="text;html=1;align=center;verticalAlign=middle;resizable=0;points=[];autosize=1;strokeColor=none;fillColor=none;" vertex="1" parent="1">
          <mxGeometry x="480" y="220" width="40" height="30" as="geometry" />
        </mxCell>
        <mxCell id="9gyQ5huFnyR0sVXiCk2G-16" value="" style="endArrow=classic;html=1;rounded=0;strokeWidth=3;" edge="1" parent="1">
          <mxGeometry width="50" height="50" relative="1" as="geometry">
            <mxPoint x="330" y="288" as="sourcePoint" />
            <mxPoint x="513" y="288" as="targetPoint" />
          </mxGeometry>
        </mxCell>
        <mxCell id="9gyQ5huFnyR0sVXiCk2G-17" value="Data" style="text;html=1;align=center;verticalAlign=middle;resizable=0;points=[];autosize=1;strokeColor=none;fillColor=none;" vertex="1" parent="1">
          <mxGeometry x="334" y="263" width="50" height="30" as="geometry" />
        </mxCell>
        <mxCell id="9gyQ5huFnyR0sVXiCk2G-18" value="" style="endArrow=classic;html=1;rounded=0;strokeWidth=3;" edge="1" parent="1">
          <mxGeometry width="50" height="50" relative="1" as="geometry">
            <mxPoint x="512" y="327" as="sourcePoint" />
            <mxPoint x="329" y="327" as="targetPoint" />
          </mxGeometry>
        </mxCell>
        <mxCell id="9gyQ5huFnyR0sVXiCk2G-19" value="Ack" style="text;html=1;align=center;verticalAlign=middle;resizable=0;points=[];autosize=1;strokeColor=none;fillColor=none;" vertex="1" parent="1">
          <mxGeometry x="480" y="302" width="40" height="30" as="geometry" />
        </mxCell>
        <mxCell id="9gyQ5huFnyR0sVXiCk2G-21" value="" style="endArrow=classic;html=1;rounded=0;strokeWidth=3;" edge="1" parent="1">
          <mxGeometry width="50" height="50" relative="1" as="geometry">
            <mxPoint x="330" y="371" as="sourcePoint" />
            <mxPoint x="513" y="371" as="targetPoint" />
          </mxGeometry>
        </mxCell>
        <mxCell id="9gyQ5huFnyR0sVXiCk2G-22" value="Stop" style="text;html=1;align=center;verticalAlign=middle;resizable=0;points=[];autosize=1;strokeColor=none;fillColor=none;" vertex="1" parent="1">
          <mxGeometry x="321" y="348" width="50" height="30" as="geometry" />
        </mxCell>
        <mxCell id="9gyQ5huFnyR0sVXiCk2G-23" value="" style="line;strokeWidth=4;direction=south;html=1;perimeter=backbonePerimeter;points=[];outlineConnect=0;" vertex="1" parent="1">
          <mxGeometry x="631" y="80" width="10" height="320" as="geometry" />
        </mxCell>
        <mxCell id="9gyQ5huFnyR0sVXiCk2G-24" value="" style="line;strokeWidth=4;direction=south;html=1;perimeter=backbonePerimeter;points=[];outlineConnect=0;" vertex="1" parent="1">
          <mxGeometry x="817" y="80" width="10" height="320" as="geometry" />
        </mxCell>
        <mxCell id="9gyQ5huFnyR0sVXiCk2G-25" value="Controller" style="text;html=1;align=center;verticalAlign=middle;resizable=0;points=[];autosize=1;strokeColor=none;fillColor=none;" vertex="1" parent="1">
          <mxGeometry x="596" y="50" width="80" height="30" as="geometry" />
        </mxCell>
        <mxCell id="9gyQ5huFnyR0sVXiCk2G-26" value="Peripheral" style="text;html=1;align=center;verticalAlign=middle;resizable=0;points=[];autosize=1;strokeColor=none;fillColor=none;" vertex="1" parent="1">
          <mxGeometry x="782" y="50" width="80" height="30" as="geometry" />
        </mxCell>
        <mxCell id="9gyQ5huFnyR0sVXiCk2G-27" value="" style="endArrow=classic;html=1;rounded=0;strokeWidth=3;" edge="1" parent="1" target="9gyQ5huFnyR0sVXiCk2G-24">
          <mxGeometry width="50" height="50" relative="1" as="geometry">
            <mxPoint x="637" y="120" as="sourcePoint" />
            <mxPoint x="687" y="70" as="targetPoint" />
          </mxGeometry>
        </mxCell>
        <mxCell id="9gyQ5huFnyR0sVXiCk2G-28" value="Start&amp;nbsp;" style="text;html=1;align=center;verticalAlign=middle;resizable=0;points=[];autosize=1;strokeColor=none;fillColor=none;" vertex="1" parent="1">
          <mxGeometry x="631" y="98" width="50" height="30" as="geometry" />
        </mxCell>
        <mxCell id="9gyQ5huFnyR0sVXiCk2G-29" value="" style="endArrow=classic;html=1;rounded=0;strokeWidth=3;" edge="1" parent="1">
          <mxGeometry width="50" height="50" relative="1" as="geometry">
            <mxPoint x="637" y="163" as="sourcePoint" />
            <mxPoint x="820" y="163" as="targetPoint" />
          </mxGeometry>
        </mxCell>
        <mxCell id="9gyQ5huFnyR0sVXiCk2G-30" value="Address" style="text;html=1;align=center;verticalAlign=middle;resizable=0;points=[];autosize=1;strokeColor=none;fillColor=none;" vertex="1" parent="1">
          <mxGeometry x="626" y="140" width="70" height="30" as="geometry" />
        </mxCell>
        <mxCell id="9gyQ5huFnyR0sVXiCk2G-31" value="" style="endArrow=classic;html=1;rounded=0;strokeWidth=3;" edge="1" parent="1">
          <mxGeometry width="50" height="50" relative="1" as="geometry">
            <mxPoint x="637" y="205" as="sourcePoint" />
            <mxPoint x="820" y="205" as="targetPoint" />
          </mxGeometry>
        </mxCell>
        <mxCell id="9gyQ5huFnyR0sVXiCk2G-32" value="Command (Read)" style="text;html=1;align=center;verticalAlign=middle;resizable=0;points=[];autosize=1;strokeColor=none;fillColor=none;" vertex="1" parent="1">
          <mxGeometry x="626" y="180" width="120" height="30" as="geometry" />
        </mxCell>
        <mxCell id="9gyQ5huFnyR0sVXiCk2G-33" value="" style="endArrow=classic;html=1;rounded=0;strokeWidth=3;" edge="1" parent="1">
          <mxGeometry width="50" height="50" relative="1" as="geometry">
            <mxPoint x="819" y="245" as="sourcePoint" />
            <mxPoint x="636" y="245" as="targetPoint" />
          </mxGeometry>
        </mxCell>
        <mxCell id="9gyQ5huFnyR0sVXiCk2G-34" value="Ack" style="text;html=1;align=center;verticalAlign=middle;resizable=0;points=[];autosize=1;strokeColor=none;fillColor=none;" vertex="1" parent="1">
          <mxGeometry x="787" y="220" width="40" height="30" as="geometry" />
        </mxCell>
        <mxCell id="9gyQ5huFnyR0sVXiCk2G-35" value="" style="endArrow=classic;html=1;rounded=0;strokeWidth=3;" edge="1" parent="1">
          <mxGeometry width="50" height="50" relative="1" as="geometry">
            <mxPoint x="820" y="288" as="sourcePoint" />
            <mxPoint x="637" y="288" as="targetPoint" />
          </mxGeometry>
        </mxCell>
        <mxCell id="9gyQ5huFnyR0sVXiCk2G-36" value="Data" style="text;html=1;align=center;verticalAlign=middle;resizable=0;points=[];autosize=1;strokeColor=none;fillColor=none;" vertex="1" parent="1">
          <mxGeometry x="641" y="263" width="50" height="30" as="geometry" />
        </mxCell>
        <mxCell id="9gyQ5huFnyR0sVXiCk2G-37" value="" style="endArrow=classic;html=1;rounded=0;strokeWidth=3;" edge="1" parent="1">
          <mxGeometry width="50" height="50" relative="1" as="geometry">
            <mxPoint x="636" y="327" as="sourcePoint" />
            <mxPoint x="819" y="327" as="targetPoint" />
          </mxGeometry>
        </mxCell>
        <mxCell id="9gyQ5huFnyR0sVXiCk2G-38" value="Ack" style="text;html=1;align=center;verticalAlign=middle;resizable=0;points=[];autosize=1;strokeColor=none;fillColor=none;" vertex="1" parent="1">
          <mxGeometry x="787" y="302" width="40" height="30" as="geometry" />
        </mxCell>
        <mxCell id="9gyQ5huFnyR0sVXiCk2G-39" value="" style="endArrow=classic;html=1;rounded=0;strokeWidth=3;" edge="1" parent="1">
          <mxGeometry width="50" height="50" relative="1" as="geometry">
            <mxPoint x="637" y="371" as="sourcePoint" />
            <mxPoint x="820" y="371" as="targetPoint" />
          </mxGeometry>
        </mxCell>
        <mxCell id="9gyQ5huFnyR0sVXiCk2G-40" value="Stop" style="text;html=1;align=center;verticalAlign=middle;resizable=0;points=[];autosize=1;strokeColor=none;fillColor=none;" vertex="1" parent="1">
          <mxGeometry x="628" y="348" width="50" height="30" as="geometry" />
        </mxCell>
        <mxCell id="9gyQ5huFnyR0sVXiCk2G-41" value="&lt;font style=&quot;font-size: 18px;&quot;&gt;Writing to Peripheral&lt;/font&gt;" style="text;html=1;align=center;verticalAlign=middle;resizable=0;points=[];autosize=1;strokeColor=none;fillColor=none;" vertex="1" parent="1">
          <mxGeometry x="330" y="410" width="190" height="40" as="geometry" />
        </mxCell>
        <mxCell id="9gyQ5huFnyR0sVXiCk2G-42" value="&lt;font style=&quot;font-size: 18px;&quot;&gt;Reading from Peripheral&lt;/font&gt;" style="text;html=1;align=center;verticalAlign=middle;resizable=0;points=[];autosize=1;strokeColor=none;fillColor=none;" vertex="1" parent="1">
          <mxGeometry x="622" y="410" width="220" height="40" as="geometry" />
        </mxCell>
      </root>
    </mxGraphModel>
  </diagram>
</mxfile>
